<svg id="visual" viewBox="0 0 900 600" width="900" height="600" xmlns="http://www.w3.org/2000/svg" xmlns:xlink="http://www.w3.org/1999/xlink" version="1.1"><path d="M0 43L75 50C150 57 300 71 450 79C600 87 750 89 825 90L900 91L900 0L825 0C750 0 600 0 450 0C300 0 150 0 75 0L0 0Z" fill="#061e12"></path><path d="M0 139L75 142C150 145 300 151 450 157C600 163 750 169 825 172L900 175L900 89L825 88C750 87 600 85 450 77C300 69 150 55 75 48L0 41Z" fill="#062214"></path><path d="M0 313L75 321C150 329 300 345 450 361C600 377 750 393 825 401L900 409L900 173L825 170C750 167 600 161 450 155C300 149 150 143 75 140L0 137Z" fill="#042616"></path><path d="M0 409L75 416C150 423 300 437 450 445C600 453 750 455 825 456L900 457L900 407L825 399C750 391 600 375 450 359C300 343 150 327 75 319L0 311Z" fill="#074228"></path><path d="M0 601L75 601C150 601 300 601 450 601C600 601 750 601 825 601L900 601L900 455L825 454C750 453 600 451 450 443C300 435 150 421 75 414L0 407Z" fill="#0a603b"></path></svg>