<svg id="visual" viewBox="0 0 960 540" width="960" height="540" xmlns="http://www.w3.org/2000/svg" xmlns:xlink="http://www.w3.org/1999/xlink" version="1.1"><rect x="0" y="0" width="960" height="540" fill="#eeebe3"></rect><defs><linearGradient id="grad1_0" x1="43.8%" y1="100%" x2="100%" y2="0%"><stop offset="14.444444444444446%" stop-color="#eeebe3" stop-opacity="1"></stop><stop offset="85.55555555555554%" stop-color="#eeebe3" stop-opacity="1"></stop></linearGradient></defs><defs><linearGradient id="grad2_0" x1="0%" y1="100%" x2="56.3%" y2="0%"><stop offset="14.444444444444446%" stop-color="#eeebe3" stop-opacity="1"></stop><stop offset="85.55555555555554%" stop-color="#eeebe3" stop-opacity="1"></stop></linearGradient></defs><g transform="translate(960, 540)"><path d="M-486 0C-460.6 -53.6 -435.2 -107.3 -417.6 -173C-400 -238.7 -390.2 -316.4 -343.7 -343.7C-297.1 -370.9 -213.8 -347.8 -150.4 -363.1C-87 -378.4 -43.5 -432.2 0 -486L0 0Z" fill="#d9c6ba"></path></g><g transform="translate(0, 0)"><path d="M486 0C443.2 47.3 400.4 94.6 384.3 159.2C368.3 223.8 378.9 305.8 343.7 343.7C308.4 381.5 227.2 375.3 162.3 391.7C97.3 408.1 48.7 447.1 0 486L0 0Z" fill="#d9c6ba"></path></g></svg>