<svg id="visual" viewBox="0 0 900 600" width="900" height="600" xmlns="http://www.w3.org/2000/svg" xmlns:xlink="http://www.w3.org/1999/xlink" version="1.1"><path d="M0 187L75 191C150 195 300 203 450 195C600 187 750 163 825 151L900 139L900 0L825 0C750 0 600 0 450 0C300 0 150 0 75 0L0 0Z" fill="#bca292"></path><path d="M0 493L75 483C150 473 300 453 450 442C600 431 750 429 825 428L900 427L900 137L825 149C750 161 600 185 450 193C300 201 150 193 75 189L0 185Z" fill="#d9c6ba"></path><path d="M0 601L75 601C150 601 300 601 450 601C600 601 750 601 825 601L900 601L900 425L825 426C750 427 600 429 450 440C300 451 150 471 75 481L0 491Z" fill="#e4d8cf"></path></svg>